<svg preserveAspectRatio="none" overflow="visible" style="display: block;" width="40" height="40" viewBox="0 0 40 40" fill="none" xmlns="http://www.w3.org/2000/svg">
<g id="google">
<path id="vector" d="M37.5018 20.3887C37.5018 18.9498 37.3826 17.8998 37.1248 16.8109H20.3589V23.3053H30.2001C30.0018 24.9192 28.9303 27.3498 26.5493 28.983L26.516 29.2005L31.817 33.225L32.1843 33.2609C35.5572 30.2081 37.5018 25.7164 37.5018 20.3887" fill="#4285F4"/>
<path id="vector_2" d="M20.3578 37.5C25.1791 37.5 29.2267 35.9443 32.1831 33.2611L26.5482 28.9831C25.0403 30.0137 23.0164 30.7332 20.3578 30.7332C15.6356 30.7332 11.6277 27.6804 10.199 23.461L9.9896 23.4784L4.4775 27.659L4.40542 27.8554C7.34188 33.5721 13.3736 37.5 20.3578 37.5Z" fill="#34A853"/>
<path id="vector_3" d="M10.2001 23.4611C9.82308 22.3722 9.60491 21.2055 9.60491 20C9.60491 18.7943 9.82308 17.6277 10.1802 16.5388L10.1702 16.3069L4.58905 12.0592L4.40644 12.1443C3.19618 14.5166 2.50173 17.1805 2.50173 20C2.50173 22.8194 3.19618 25.4832 4.40644 27.8555L10.2001 23.4611" fill="#FBBC05"/>
<path id="vector_4" d="M20.3579 9.26662C23.711 9.26662 25.9729 10.6861 27.2626 11.8722L32.3023 7.05C29.2071 4.23056 25.1792 2.5 20.3579 2.5C13.3737 2.5 7.3419 6.42775 4.40542 12.1444L10.1792 16.5389C11.6278 12.3194 15.6357 9.26662 20.3579 9.26662" fill="#EB4335"/>
</g>
</svg>
